<svg xmlns="http://www.w3.org/2000/svg" viewBox="0 0 305.41 146.71"><defs><style>.cls-1{fill:#232321;}.cls-2{fill:none;stroke:#030608;stroke-linecap:round;stroke-linejoin:round;stroke-width:3.4px;}</style></defs><title>Ресурс 2</title><g id="Слой_2" data-name="Слой 2"><g id="Calque_1" data-name="Calque 1"><path class="cls-1" d="M7.92,21.11l7.94,26.22,6.88-16.11,9.48-2.87.13.45L23.73,47.35,43.55,59.21l.17.58-9.54,2.89L17.27,52l4.38,14.48-7.91,2.39L0,23.51Z"/><path class="cls-1" d="M68.25,20.77l7.8-1.49,6.29,32.83-7.66,1.47-1.32-4.72c-1.13,4.22-5.9,7.07-9.55,7.84C54.1,58.63,45.76,54,43.55,42.49,41.38,31.16,47.77,23.79,57.38,22c4.39-.84,9,.42,11.47,3.33ZM51.68,40.93c1.19,6.26,6.24,9.16,11.63,8.13,12.79-2.45,9-22.37-3.81-19.92C54.1,30.18,50.48,34.67,51.68,40.93Z"/><path class="cls-1" d="M112.23,15.23l.41,3.91L99.55,42,115,40.37l.85,8.1-28,2.93L87.49,48l13.59-24L86.37,25.5,85.59,18Z"/><path class="cls-1" d="M129.29,4.91c.33,6.43-9.43,6.93-9.75.5S129-1.53,129.29,4.91Zm-8.53,9.74,1.71,33.52,8.26-.42L129,14.23Z"/><path class="cls-1" d="M175,.09l-.53,47.4-7.73-.08-.49-4.62c-2.62,4-6.78,5.28-10.85,5.24-9.83-.11-17.15-6.71-17-17.69.12-11.53,7.45-17.42,17.21-17.31,3.53,0,9,2,10.93,5.48L166.74,0ZM146.67,30.43c-.07,5.83,4.09,9.88,9.38,9.94a9.48,9.48,0,0,0,9.81-9.72,9.55,9.55,0,0,0-9.59-9.88C151,20.71,146.74,24.4,146.67,30.43Z"/><path class="cls-1" d="M217.71,34.6c-1,9.58-8.26,16.7-19.06,15.63s-16.51-9.47-15.56-19.06S191.42,14.48,202,15.53,218.65,25.08,217.71,34.6ZM191.32,32c-.5,5.06,2.07,10.09,8.08,10.68s9.51-3.83,10-8.89-2.54-10.2-8.07-10.75C195.4,22.44,191.82,27,191.32,32Z"/><path class="cls-1" d="M244.5,56.31l3.86-17.48c.95-4.3-.44-8.71-4.87-9.69s-7.82,2.37-8.77,6.68L230.86,53.3l-8.08-1.79L230,18.8l7.49,1.66-.29,4.1c2.46-2.93,6.5-3.29,9.61-2.6,3.9.86,7.46,3.31,8.32,8.23,3.94-4,8-4.49,12.24-3.55,9.27,2.05,12.58,8.75,10.42,18.55L273.9,62.8,265.82,61l3.89-17.61c1-4.31,0-8.35-4.4-9.31s-7.92,2.21-8.87,6.51l-3.86,17.48Z"/><path class="cls-1" d="M301.41,37.22,290.58,69l-7.83-2.67,10.83-31.77Zm-5.54-11.71c-2.08,6.1,7.16,9.25,9.24,3.15S298,19.42,295.87,25.51Z"/><line class="cls-2" x1="202.33" y1="113.34" x2="244.35" y2="113.34"/><line class="cls-2" x1="61.04" y1="113.34" x2="103.06" y2="113.34"/><path d="M190.75,108.66a38.06,38.06,0,1,1-38-38.11A38.11,38.11,0,0,1,190.75,108.66Zm-54,3h30.9c-.11-8.11-7.35-14.85-15.89-14.85C144.09,96.87,136.87,104,136.78,111.71Zm.29,3.48c7.59,4,12.49,10.32,15.51,18.38a35.8,35.8,0,0,1,6.12-10.73,33.71,33.71,0,0,1,9.47-7.65Zm31.67-37.4L166,85.29q-1.83,5.05-3.67,10.1c-.15.41-.36.83.08,1.21l4.33,3.63,12.16-14.41A34.64,34.64,0,0,0,168.74,77.79ZM136,78.16A34.39,34.39,0,0,0,126.33,86a.91.91,0,0,0,0,.83,17.81,17.81,0,0,0,1.19,1.44l10.08,11.93c1.41-1.14,2.8-2.3,4.22-3.4a1.07,1.07,0,0,0,.38-1.43q-2.13-5.76-4.22-11.52Zm17.88,5.64q0,4.52,0,9a.86.86,0,0,0,.79,1c1.25.25,2.48.55,3.71.88.55.16.75,0,.93-.52q3.08-8.5,6.21-17c.25-.68.08-.91-.54-1.14a35.72,35.72,0,0,0-10-2.13c-1-.07-1.09,0-1.09,1ZM150.55,74a1.29,1.29,0,0,0-.26-.06,34.14,34.14,0,0,0-10.76,2.48c-.46.19-.51.53-.34,1q3.08,8.4,6.12,16.8a.55.55,0,0,0,.78.41c1.13-.26,2.26-.5,3.39-.73s1.12-.27,1.12-1.36q0-7.39,0-14.8Zm20.12,34.44a2.08,2.08,0,0,0,.3-.1l14.68-8.43a.82.82,0,0,0,.38-1.11A33.55,33.55,0,0,0,181.35,89c-.1-.14-.23-.26-.37-.43l-.5.57-4.08,4.83c-2.45,2.9-4.91,5.79-7.33,8.71a1.2,1.2,0,0,0-.25,1C169.39,105.21,170,106.79,170.67,108.45Zm-36.85-.22c.57-1.47,1.1-2.9,1.69-4.3a1.22,1.22,0,0,0-.25-1.44c-2.72-3.19-5.41-6.39-8.11-9.59L124,89.15c-.18.25-.33.42-.45.61a35.74,35.74,0,0,0-4.27,9.29.9.9,0,0,0,.52,1.22q6.65,3.77,13.26,7.56ZM172,111.59l0,.16c.18,0,.36,0,.53,0,4.65,0,9.3,0,14,0,.64,0,.87-.23.85-.85-.05-2-.05-4-.11-6a18.41,18.41,0,0,0-.26-2Zm-1.52,6.51a32,32,0,0,0-6.71,4.34,2.25,2.25,0,0,0-.86,1.93c0,2.56,0,5.13.05,7.69,0,.19,0,.38.06.61a2.73,2.73,0,0,0,.27-.14q3.41-3,6.79-5.93a1.26,1.26,0,0,0,.38-.84C170.49,123.24,170.48,120.73,170.48,118.1Zm-35.77,0v.78c0,2.13,0,4.26,0,6.39a2,2,0,0,0,.77,1.68c2.07,1.75,4.11,3.54,6.16,5.3.15.13.32.24.56.41a5.11,5.11,0,0,0,.09-.62c0-2.06-.16-4.13,0-6.18a4.26,4.26,0,0,0-2.39-4.5C138.22,120.35,136.74,118.93,134.71,118.11Zm-16.33-14.84a9,9,0,0,0-.14,1c-.08,2.17-.14,4.34-.2,6.52,0,.94.07,1,1,1h13.12a6.68,6.68,0,0,0,.77-.07l0-.15ZM181,129l-.14-.21a1.8,1.8,0,0,0-.32-.06c-2.36,0-4.72,0-7.08,0a2.14,2.14,0,0,0-1.17.5c-1.85,1.56-3.68,3.16-5.51,4.76-.17.15-.32.34-.62.67h1c2.38,0,4.76-.07,7.14,0a2.94,2.94,0,0,0,2.54-1.08C178.14,132,179.57,130.51,181,129Zm-42.06,5.37-.66-.57c-1.7-1.46-3.41-2.92-5.08-4.41a3.13,3.13,0,0,0-2.21-.81c-1.94,0-3.89,0-5.83,0-.23,0-.47.05-.78.08a2,2,0,0,0,.25.38c1.48,1.68,3,3.37,4.48,5a1.44,1.44,0,0,0,.92.38c2.75,0,5.5,0,8.25.06A3.94,3.94,0,0,0,138.91,134.35Zm-4.71,3.39,0,.31a34.73,34.73,0,0,0,14.58,5.06.38.38,0,0,0-.1-.31c-1.78-1.55-3.55-3.11-5.36-4.61a2.06,2.06,0,0,0-1.21-.39c-1.76-.06-3.51-.05-5.27-.06C135.93,137.73,135.06,137.74,134.2,137.74Zm49.13-22.59a25.41,25.41,0,0,0-9,1.44,1.15,1.15,0,0,0-.51.84c0,1.71,0,3.42,0,5.13,0,.22,0,.43.05.8ZM171.23,138l-.6,0c-1.84,0-3.69,0-5.54-.11a6.42,6.42,0,0,0-5.28,2.09,28.86,28.86,0,0,1-2.15,2c-.43.38-.89.75-1.33,1.13A32.3,32.3,0,0,0,171.23,138Zm-49.38-22.89,9.5,8.24c0-2.14,0-4.1,0-6.06,0-.51-.33-.71-.78-.81-.79-.17-1.57-.37-2.36-.53A23.54,23.54,0,0,0,121.85,115.11Zm37.8,12.48-.24-.09a36.52,36.52,0,0,0-5.13,12.67,3.2,3.2,0,0,0,.43-.2c1.52-1.32,3-2.63,4.54-4a1.37,1.37,0,0,0,.38-.91C159.66,132.58,159.65,130.08,159.65,127.59Zm-14,.08c0,.24-.06.49-.06.73,0,1.94,0,3.88-.05,5.82a3.06,3.06,0,0,0,1.17,2.48l3.59,3.05c.15.13.31.23.62.46A32.22,32.22,0,0,0,145.61,127.67Zm40.63-10.59-9.32,8.08a1.6,1.6,0,0,0,.35.13c1.8,0,3.61.09,5.41.1a.73.73,0,0,0,.56-.31A27.59,27.59,0,0,0,186.24,117.08Zm-67.1.13a1.1,1.1,0,0,0,0,.27,29.1,29.1,0,0,0,2.85,7.26,1.25,1.25,0,0,0,.93.51c1.36.06,2.73,0,4.09,0h1.21l0-.18Z"/></g></g></svg>